<svg xmlns="http://www.w3.org/2000/svg" width="16" height="16" viewBox="0 0 16 16"><g fill="#ffffff"><circle cx="6.14" cy="8.8" r=".8"/><path d="M9.67,10.71A2.63,2.63,0,0,1,8,11.2a2.61,2.61,0,0,1-1.66-.5A.22.22,0,0,0,6,11a3.07,3.07,0,0,0,2,.62A3.07,3.07,0,0,0,10,11v0a.22.22,0,0,0-.31-.32Z"/><path d="M8,0a8,8,0,1,0,8,8A8,8,0,0,0,8,0Zm4.69,9.06a2.6,2.6,0,0,1,0,.35c0,1.79-2.09,3.25-4.66,3.25S3.36,11.21,3.36,9.42a2.6,2.6,0,0,1,0-.35A1.13,1.13,0,0,1,3,8.85a1.17,1.17,0,0,1,1.6-1.7,5.73,5.73,0,0,1,3.12-1l.59-2.78h0a.25.25,0,0,1,.3-.19l2,.39a.8.8,0,1,1-.11.49L8.8,3.72l-.52,2.5a5.69,5.69,0,0,1,3.08,1,1.16,1.16,0,1,1,1.33,1.87Z"/><path d="M9.84 8a.8 .8 0 1 0 0 1.6A.82 .82 0 0 0 9.84 8"/></g></svg>
