<svg xmlns="http://www.w3.org/2000/svg" width="16" height="14" viewBox="0 0 16 14"><path d="M16,1.66a6.21,6.21,0,0,1-1.89.56,3.51,3.51,0,0,0,1.44-2,6.3,6.3,0,0,1-2.08.86A3.17,3.17,0,0,0,11.08,0,3.42,3.42,0,0,0,7.79,3.53a3.75,3.75,0,0,0,.09.81A9.12,9.12,0,0,1,1.11.65,3.72,3.72,0,0,0,.67,2.42,3.61,3.61,0,0,0,2.13,5.36,3.09,3.09,0,0,1,.64,4.92V5A3.48,3.48,0,0,0,3.28,8.43a3.07,3.07,0,0,1-1.48.06,3.33,3.33,0,0,0,3.07,2.46A6.3,6.3,0,0,1,.78,12.46a6.34,6.34,0,0,1-.78,0A8.82,8.82,0,0,0,5,14c6,0,9.34-5.39,9.34-10.06,0-.15,0-.31,0-.46A7,7,0,0,0,16,1.66Z" fill="#ffffff"/></svg>
